<?xml version="1.0" encoding="utf-8"?>
<!-- Generator: Adobe Illustrator 27.9.2, SVG Export Plug-In . SVG Version: 6.00 Build 0)  -->
<svg version="1.1" id="_x32_" xmlns="http://www.w3.org/2000/svg" xmlns:xlink="http://www.w3.org/1999/xlink" x="0px" y="0px"
	 viewBox="0 0 512 512" style="enable-background:new 0 0 512 512;" xml:space="preserve">
<style type="text/css">
	.st0{fill:#242424;}
</style>
<g>
	<path class="st0" d="M403.5,395c-129.2,0-233.9-104.8-233.9-234C169.5,98.6,194,42,233.9,0C109.3,18,13.6,125.1,13.6,254.7
		C13.6,396.8,128.8,512,270.9,512c98.7,0,184.4-55.6,227.5-137.1C469.4,387.8,437.3,395,403.5,395z"/>
	<path class="st0" d="M349.6,179.3c1,1,1.5,2.5,1.3,3.9l-8.6,49.9c-0.3,1.7,0.4,3.3,1.8,4.3c1.4,1,3.2,1.1,4.7,0.3l44.9-23.6
		c1.3-0.7,2.8-0.7,4.1,0l44.9,23.6c1.5,0.8,3.3,0.7,4.7-0.3c1.4-1,2-2.7,1.8-4.3l-8.6-49.9c-0.2-1.4,0.2-2.9,1.3-3.9L478,144
		c1.2-1.2,1.6-2.9,1.1-4.5c-0.5-1.6-1.9-2.8-3.6-3l-50.1-7.3c-1.4-0.2-2.7-1.1-3.3-2.4l-22.4-45.5c-0.7-1.5-2.3-2.5-4-2.5
		c-1.7,0-3.2,0.9-4,2.5l-22.4,45.5c-0.6,1.3-1.9,2.2-3.3,2.4l-50.1,7.3c-1.7,0.2-3.1,1.4-3.6,3s-0.1,3.4,1.1,4.5L349.6,179.3z"/>
</g>
</svg>
